<svg width="24" height="20" viewBox="0 0 24 20" fill="none" xmlns="http://www.w3.org/2000/svg">
<path d="M16.038 0L19.8924 6.33413H24V8.61178H22.5996L21.6912 18.9557C21.6662 19.2403 21.5295 19.5056 21.3081 19.699C21.0868 19.8924 20.7969 19.9998 20.496 20H3.504C3.20289 20.0001 2.91273 19.8928 2.69111 19.6994C2.46948 19.5059 2.33259 19.2405 2.3076 18.9557L1.3992 8.61178H0V6.33413H4.1064L7.9608 0L10.0392 1.13882L6.8784 6.33413H17.1204L13.9608 1.13882L16.0392 0H16.038ZM20.19 8.61178H3.8088L4.6092 17.7224H19.392L20.1924 8.61178H20.19ZM13.2 10.8894V15.4447H10.8V10.8894H13.2ZM8.4 10.8894V15.4447H6V10.8894H8.4ZM18 10.8894V15.4447H15.6V10.8894H18Z" fill="white"/>
</svg>
